<?xml version="1.0" encoding="UTF-8"?>
<svg width="39px" height="38px" viewBox="0 0 39 38" version="1.1" xmlns="http://www.w3.org/2000/svg" xmlns:xlink="http://www.w3.org/1999/xlink">
    <!-- Generator: Sketch 44.1 (41455) - http://www.bohemiancoding.com/sketch -->
    <title>Rectangle 12</title>
    <desc>Created with Sketch.</desc>
    <defs></defs>
    <g id="Page-1" stroke="none" stroke-width="1" fill="none" fill-rule="evenodd">
        <g id="A4" transform="translate(-928.000000, -392.000000)" stroke="#999999" stroke-width="3">
            <path d="M950.5,394.233333 L950.5,408.233333 L965.5,408.233333 L965.5,396.733333 C965.5,395.352621 964.380712,394.233333 963,394.233333 L950.5,394.233333 Z M929.5,408.233333 L944.5,408.233333 L944.5,394.233333 L932,394.233333 C930.619288,394.233333 929.5,395.352621 929.5,396.733333 L929.5,408.233333 Z M929.5,414.233333 L929.5,425.733333 C929.5,427.114045 930.619288,428.233333 932,428.233333 L944.5,428.233333 L944.5,414.233333 L929.5,414.233333 Z M950.5,414.233333 L950.5,428.233333 L963,428.233333 C964.380712,428.233333 965.5,427.114045 965.5,425.733333 L965.5,414.233333 L950.5,414.233333 Z" id="Rectangle-12"></path>
        </g>
    </g>
</svg>