<?xml version="1.0" encoding="UTF-8"?>
<svg width="30px" height="40px" viewBox="0 0 30 40" version="1.1" xmlns="http://www.w3.org/2000/svg" xmlns:xlink="http://www.w3.org/1999/xlink">
    <!-- Generator: Sketch 44.1 (41455) - http://www.bohemiancoding.com/sketch -->
    <title>Rectangle 16</title>
    <desc>Created with Sketch.</desc>
    <defs></defs>
    <g id="Page-1" stroke="none" stroke-width="1" fill="none" fill-rule="evenodd">
        <g id="A4" transform="translate(-849.000000, -401.000000)">
            <path d="M868.765913,406.342974 C867.770709,404.935492 866.008258,404 864,404 C860.893398,404 858.375,406.238576 858.375,409 L858.375,409.153074 C862.986178,409.058297 866.423785,408.107836 868.765913,406.342974 Z M869.625,409.622727 C866.71542,411.233532 862.950175,412.069147 858.375,412.153748 L858.375,414 C858.375,416.761424 860.893398,419 864,419 C867.106602,419 869.625,416.761424 869.625,414 L869.625,409.622727 Z M864,401 C868.970563,401 873,404.581722 873,409 L873,414 C873,418.418278 868.970563,422 864,422 C859.029437,422 855,418.418278 855,414 L855,409 C855,404.581722 859.029437,401 864,401 Z" id="Combined-Shape" fill="#999999"></path>
            <path d="M854.601047,423.5 C853.32165,423.5 852.248717,424.465921 852.114783,425.738288 L850.956889,436.738288 C850.947737,436.825225 850.943152,436.912583 850.943152,437 C850.943152,438.380712 852.06244,439.5 853.443152,439.5 L874.556848,439.5 C874.644265,439.5 874.731623,439.495415 874.81856,439.486264 C876.191685,439.341724 877.187651,438.111414 877.043111,436.738288 L875.885217,425.738288 C875.751283,424.465921 874.67835,423.5 873.398953,423.5 L854.601047,423.5 Z" id="Rectangle-16" stroke="#999999" stroke-width="3"></path>
        </g>
    </g>
</svg>