<?xml version="1.0" encoding="UTF-8"?>
<svg width="43px" height="44px" viewBox="0 0 43 44" version="1.1" xmlns="http://www.w3.org/2000/svg" xmlns:xlink="http://www.w3.org/1999/xlink">
    <!-- Generator: Sketch 44.1 (41455) - http://www.bohemiancoding.com/sketch -->
    <title>Oval 3</title>
    <desc>Created with Sketch.</desc>
    <defs></defs>
    <g id="Page-1" stroke="none" stroke-width="1" fill="none" fill-rule="evenodd">
        <g id="A4" transform="translate(-528.000000, -389.000000)" fill-rule="nonzero" fill="#999999">
            <path d="M549.495472,392 C558.476056,392 566.143342,398.360885 567.962825,407.058426 L571,407.063791 C569.156958,396.791769 560.230081,389 549.495472,389 C538.787333,389 529.878022,396.75339 528.004707,406.987848 L531.041892,406.993212 C532.886594,398.326903 540.539284,392 549.495472,392 Z M549.495472,392 C558.476056,392 566.143342,398.360885 567.962825,407.058426 L571,407.063791 C569.156958,396.791769 560.230081,389 549.495472,389 C538.787333,389 529.878022,396.75339 528.004707,406.987848 L531.041892,406.993212 C532.886594,398.326903 540.539284,392 549.495472,392 Z M570.96982,415.100819 C569.061414,425.291358 560.172666,433 549.495472,433 C538.778336,433 529.863051,425.233576 528,414.986349 L531.039266,414.994452 C532.879117,423.66634 540.534376,430 549.495472,430 C558.419785,430 566.052951,423.717453 567.930538,415.092722 L570.96982,415.100819 Z M570.96982,415.100819 C569.061414,425.291358 560.172666,433 549.495472,433 C538.778336,433 529.863051,425.233576 528,414.986349 L531.039266,414.994452 C532.879117,423.66634 540.534376,430 549.495472,430 C558.419785,430 566.052951,423.717453 567.930538,415.092722 L570.96982,415.100819 Z M539.737249,417.294681 L538.754982,412.924316 L531.973331,412.924316 L531.973331,409.924316 L541.136041,409.924316 L541.504609,411.564171 L544.211034,402.873501 C544.473618,402.030312 545.365467,401.561067 546.203034,401.825413 C546.716658,401.987519 547.113875,402.400326 547.258486,402.92229 L550.494633,414.602939 L553.131358,404.101326 C553.346459,403.244614 554.210705,402.725656 555.061705,402.942201 C555.619568,403.084155 556.057648,403.518574 556.207052,404.077976 L557.570263,409.182129 L561.507042,409.182129 L561.507042,412.182129 L555.285666,412.182129 L554.713785,410.040882 L552.101609,420.444721 C551.961902,421.001146 551.536862,421.439619 550.987723,421.593808 C550.142229,421.831209 549.265653,421.333652 549.029835,420.482483 L545.649705,408.282137 L542.803946,417.420224 C542.634546,417.964188 542.190447,418.376328 541.638139,418.502135 C540.782017,418.697145 539.930959,418.15655 539.737249,417.294681 Z M564.383322,412.255058 C563.490456,412.255058 562.766645,411.526388 562.766645,410.627529 C562.766645,409.728669 563.490456,409 564.383322,409 C565.276189,409 566,409.728669 566,410.627529 C566,411.526388 565.276189,412.255058 564.383322,412.255058 Z" id="Oval-3"></path>
        </g>
    </g>
</svg>